<svg width="12" height="13" viewBox="0 0 12 13" fill="none" xmlns="http://www.w3.org/2000/svg">
<path d="M5.33462 0.190381C5.58846 0.444221 5.58846 0.855779 5.33462 1.10962L4.49424 1.95H5.525C8.54899 1.95 11.05 4.45101 11.05 7.475C11.05 10.499 8.54899 13 5.525 13C2.50102 13 0 10.499 0 7.475C0 7.11601 0.291015 6.825 0.65 6.825C1.00899 6.825 1.3 7.11601 1.3 7.475C1.3 9.78101 3.21899 11.7 5.525 11.7C7.83102 11.7 9.75 9.78101 9.75 7.475C9.75 5.16898 7.83102 3.25 5.525 3.25H4.49424L5.33462 4.09038C5.58846 4.34422 5.58846 4.75578 5.33462 5.00962C5.08078 5.26346 4.66922 5.26346 4.41538 5.00962L2.46538 3.05962C2.21154 2.80578 2.21154 2.39422 2.46538 2.14038L4.41538 0.190381C4.66922 -0.0634602 5.08078 -0.0634602 5.33462 0.190381Z" fill="white"/>
</svg>
