<svg width="17" height="17" viewBox="0 0 17 17" fill="none" xmlns="http://www.w3.org/2000/svg">
<path d="M16.0777 12.082C15.9553 11.7759 15.792 11.4902 15.6084 11.2249C14.6696 9.83709 13.2206 8.91873 11.588 8.69424C11.3839 8.67385 11.1594 8.71463 10.9961 8.83709C10.139 9.46975 9.1186 9.79627 8.05735 9.79627C6.9961 9.79627 5.97571 9.46975 5.11856 8.83709C4.95528 8.71463 4.73079 8.65342 4.52673 8.69424C2.89407 8.91873 1.4247 9.83709 0.506339 11.2249C0.322667 11.4902 0.159386 11.7963 0.0369639 12.082C-0.0242471 12.2045 -0.00385646 12.3473 0.0573545 12.4698C0.220636 12.7555 0.424698 13.0412 0.60837 13.2861C0.894073 13.6739 1.20021 14.0208 1.54716 14.3473C1.83286 14.633 2.15939 14.8983 2.48595 15.1637C4.09817 16.3678 6.03696 17.0004 8.03696 17.0004C10.037 17.0004 11.9757 16.3677 13.588 15.1637C13.9145 14.9188 14.241 14.633 14.5268 14.3473C14.8533 14.0208 15.1798 13.6738 15.4656 13.2861C15.6696 13.0208 15.8533 12.7555 16.0166 12.4698C16.1186 12.3473 16.139 12.2044 16.0777 12.082Z" fill="#B3D1E9"/>
<path d="M8 0C5.79912 0 4 1.79912 4 4C4 6.20088 5.79912 8 8 8C10.2009 8 12 6.20088 12 4C12 1.79912 10.2009 0 8 0Z" fill="#B3D1E9"/>
</svg>
