<svg width="17" height="17" viewBox="0 0 17 17" fill="none" xmlns="http://www.w3.org/2000/svg">
<path d="M16.0777 12.0818C15.9553 11.7756 15.792 11.4899 15.6084 11.2246C14.6696 9.83684 13.2206 8.91848 11.588 8.69399C11.3839 8.6736 11.1594 8.71438 10.9961 8.83684C10.139 9.4695 9.1186 9.79602 8.05735 9.79602C6.9961 9.79602 5.97571 9.4695 5.11856 8.83684C4.95528 8.71438 4.73079 8.65317 4.52673 8.69399C2.89407 8.91848 1.4247 9.83684 0.506339 11.2246C0.322667 11.4899 0.159386 11.7961 0.0369639 12.0818C-0.0242471 12.2042 -0.00385646 12.3471 0.0573545 12.4695C0.220636 12.7552 0.424698 13.041 0.60837 13.2859C0.894073 13.6736 1.20021 14.0206 1.54716 14.3471C1.83286 14.6328 2.15939 14.8981 2.48595 15.1634C4.09817 16.3675 6.03696 17.0001 8.03696 17.0001C10.037 17.0001 11.9757 16.3675 13.588 15.1634C13.9145 14.9185 14.241 14.6328 14.5268 14.3471C14.8533 14.0206 15.1798 13.6736 15.4656 13.2859C15.6696 13.0206 15.8533 12.7552 16.0166 12.4695C16.1186 12.3471 16.139 12.2042 16.0777 12.0818Z" fill="#364963"/>
<path d="M8 0C5.79912 0 4 1.79912 4 4C4 6.20088 5.79912 8 8 8C10.2009 8 12 6.20088 12 4C12 1.79912 10.2009 0 8 0Z" fill="#364963"/>
</svg>
