<svg width="14" height="14" viewBox="0 0 14 14" fill="none" xmlns="http://www.w3.org/2000/svg">
<path d="M6.99969 14C6.27508 14 5.68761 13.4119 5.68761 12.6873V8.31239H1.31239C0.587789 8.31239 0 7.72491 0 7C0 6.27509 0.587789 5.6873 1.31239 5.6873H5.68761V1.31208C5.68761 0.5881 6.27508 0 6.99969 0C7.72491 0 8.31239 0.58779 8.31239 1.31208V5.6873H12.6873C13.4122 5.6873 13.9997 6.27478 13.9997 7C13.9997 7.72491 13.4122 8.31239 12.6873 8.31239H8.31239V12.6873C8.31239 13.4119 7.72491 14 6.99969 14Z" fill="white"/>
</svg>
