<svg width="30" height="31" viewBox="0 0 30 31" fill="none" xmlns="http://www.w3.org/2000/svg">
<path d="M26.3142 25.4497C13.5539 31.5225 5.63465 26.4416 0.565311 23.3555C0.251623 23.161 -0.281539 23.401 0.181052 23.9323C1.8699 25.9801 7.40462 30.9158 14.629 30.9158C21.8584 30.9158 26.1592 26.9711 26.6973 26.283C27.2316 25.6007 26.8542 25.2243 26.3141 25.4497H26.3142ZM29.8979 23.4706C29.5553 23.0243 27.8143 22.9411 26.7186 23.0757C25.6212 23.2065 23.9741 23.8771 24.1173 24.2798C24.1908 24.4307 24.3408 24.363 25.0946 24.2952C25.8505 24.2198 27.9681 23.9525 28.4094 24.5294C28.8527 25.1102 27.734 27.877 27.5297 28.3232C27.3323 28.7694 27.6051 28.8845 27.9759 28.5873C28.3416 28.2902 29.0037 27.5209 29.4479 26.4321C29.8892 25.3374 30.1583 23.8103 29.8978 23.4706H29.8979Z" fill="#A9C6DE"/>
<path fill-rule="evenodd" clip-rule="evenodd" d="M17.7342 13.0583C17.7342 14.6517 17.7745 15.9805 16.9691 17.3956C16.3191 18.5462 15.2893 19.2537 14.1389 19.2537C12.5684 19.2537 11.6537 18.0572 11.6537 16.2912C11.6537 12.8051 14.7773 12.1724 17.7342 12.1724V13.0583ZM21.8587 23.0274C21.5883 23.269 21.1972 23.2863 20.8923 23.1252C19.5348 21.9977 19.2931 21.4743 18.5453 20.3985C16.3018 22.688 14.7141 23.3725 11.8034 23.3725C8.36334 23.3725 5.68262 21.2498 5.68262 16.9987C5.68262 13.6796 7.48327 11.4188 10.043 10.3144C12.2635 9.33633 15.3642 9.16378 17.7342 8.8935V8.36422C17.7342 7.39199 17.8089 6.24152 17.2395 5.4017C16.739 4.6481 15.7841 4.33744 14.9441 4.33744C13.3853 4.33744 11.9931 5.137 11.6537 6.79372C11.5846 7.16197 11.3143 7.5244 10.9462 7.54162L6.9769 7.11601C6.64333 7.04108 6.27519 6.7708 6.36723 6.25874C7.28186 1.44973 11.6249 0 15.5135 0C17.504 0 20.1041 0.529281 21.6746 2.03649C23.665 3.89449 23.4751 6.37381 23.4751 9.07175V15.4456C23.4751 17.3612 24.2689 18.201 25.0167 19.2365C25.2813 19.6046 25.3389 20.0477 25.0052 20.3237C24.1711 21.0197 22.6869 22.3141 21.8701 23.039L21.8587 23.0274Z" fill="white"/>
</svg>
