<svg width="18" height="14" viewBox="0 0 18 14" fill="none" xmlns="http://www.w3.org/2000/svg">
<path d="M16.6373 5.88913C16.2866 5.88913 15.9411 5.75505 15.673 5.48689C11.991 1.81006 6.00902 1.81006 2.32703 5.48689C1.79587 6.01805 0.929523 6.01805 0.398367 5.48689C-0.132789 4.95574 -0.132789 4.08939 0.398367 3.55823C5.14267 -1.18608 12.8573 -1.18608 17.6016 3.55823C18.1328 4.08939 18.1328 4.95574 17.6016 5.48689C17.3335 5.75505 16.9828 5.88913 16.6373 5.88913Z" fill="#B3D1E9"/>
<path d="M12.9451 9.57608C12.5944 9.57608 12.2489 9.442 11.9807 9.17384C11.1866 8.37969 10.1243 7.94135 9.00008 7.94135C7.87588 7.94135 6.81357 8.37969 6.01941 9.17384C5.48826 9.705 4.62191 9.705 4.09075 9.17384C3.55959 8.64269 3.55959 7.77634 4.09075 7.24518C5.40059 5.93534 7.14361 5.21338 9.00008 5.21338C10.8565 5.21338 12.5996 5.93534 13.9094 7.25034C14.4406 7.78149 14.4406 8.64784 13.9094 9.179C13.6464 9.442 13.2957 9.57608 12.9451 9.57608Z" fill="#B3D1E9"/>
<path d="M9.00006 13.9801C10.0054 13.9801 10.8204 13.1651 10.8204 12.1597C10.8204 11.1544 10.0054 10.3394 9.00006 10.3394C7.99469 10.3394 7.17969 11.1544 7.17969 12.1597C7.17969 13.1651 7.99469 13.9801 9.00006 13.9801Z" fill="#B3D1E9"/>
</svg>
