<svg width="18" height="13" viewBox="0 0 18 13" fill="none" xmlns="http://www.w3.org/2000/svg">
<path fill-rule="evenodd" clip-rule="evenodd" d="M1.02857 0C0.460507 0 0 0.510553 0 1.14035V11.8596C0 12.4895 0.460507 13 1.02857 13H16.9714C17.5395 13 18 12.4895 18 11.8596V1.14035C18 0.510552 17.5395 0 16.9714 0H1.02857ZM13.0629 2.73684C12.7789 2.73684 12.5486 2.99212 12.5486 3.30702V4.44737C12.5486 4.76226 12.7789 5.01754 13.0629 5.01754H15.2229C15.5068 5.01754 15.7371 4.76226 15.7371 4.44737V3.30702C15.7371 2.99212 15.5068 2.73684 15.2229 2.73684H13.0629ZM1.85143 7.86842C1.85143 7.61651 2.03564 7.41228 2.26286 7.41228H15.7371C15.9644 7.41228 16.1486 7.61651 16.1486 7.86842C16.1486 8.12034 15.9644 8.32456 15.7371 8.32456H2.26286C2.03564 8.32456 1.85143 8.12034 1.85143 7.86842ZM2.26286 9.80702C2.03564 9.80702 1.85143 10.0112 1.85143 10.2632C1.85143 10.5151 2.03564 10.7193 2.26286 10.7193H8.22857C8.45579 10.7193 8.64 10.5151 8.64 10.2632C8.64 10.0112 8.45579 9.80702 8.22857 9.80702H2.26286Z" fill="#B3D1E9"/>
</svg>
