<svg width="16" height="9" viewBox="0 0 16 9" fill="none" xmlns="http://www.w3.org/2000/svg">
<path d="M6.23953 4.59995C6.23953 3.19451 6.90024 1.94714 7.91409 1.14118C7.16794 0.554514 6.22671 0.199951 5.20005 0.199951C2.76794 0.199951 0.800049 2.16785 0.800049 4.59995C0.800049 7.03205 2.76794 8.99995 5.20005 8.99995C6.22671 8.99995 7.16794 8.64539 7.91409 8.05872C6.89882 7.26416 6.23953 6.00539 6.23953 4.59995Z" fill="white"/>
<path d="M15.0284 4.59995C15.0284 7.03205 13.0605 8.99995 10.6284 8.99995C9.60169 8.99995 8.66046 8.64539 7.91431 8.05872C8.94097 7.25134 9.58887 6.00539 9.58887 4.59995C9.58887 3.19451 8.92816 1.94714 7.91431 1.14118C8.65903 0.554514 9.60026 0.199951 10.6269 0.199951C13.0605 0.199951 15.0284 2.18066 15.0284 4.59995Z" fill="white"/>
</svg>
