<svg width="14" height="15" viewBox="0 0 14 15" fill="none" xmlns="http://www.w3.org/2000/svg">
<path d="M0.5 13.1591V3.04545C0.5 2.77273 0.602273 2.53409 0.795455 2.32955C0.988636 2.125 1.22727 2.03409 1.5 2.03409H2.5V1.27273C2.5 0.920454 2.625 0.625 2.86364 0.375C3.11364 0.125 3.39773 0 3.75 0H4.25C4.59091 0 4.88636 0.125 5.13636 0.375C5.38636 0.625 5.5 0.920454 5.5 1.27273V2.03409H8.5V1.27273C8.5 0.920454 8.625 0.625 8.86364 0.375C9.11364 0.125 9.39773 0 9.75 0H10.25C10.5909 0 10.8864 0.125 11.1364 0.375C11.3864 0.625 11.5 0.920454 11.5 1.27273V2.03409H12.5C12.7727 2.03409 13 2.13636 13.2045 2.32955C13.3977 2.53409 13.5 2.76136 13.5 3.04545V13.1477C13.5 13.4205 13.3977 13.6591 13.2045 13.8636C13.0114 14.0682 12.7727 14.1591 12.5 14.1591H1.5C1.22727 14.1591 1 14.0568 0.795455 13.8636C0.602273 13.6591 0.5 13.4318 0.5 13.1591ZM1.5 13.1591H12.5V5.06818H1.5V13.1591ZM3.5 3.55682C3.5 3.625 3.52273 3.69318 3.56818 3.73864C3.61364 3.78409 3.67045 3.80682 3.75 3.80682H4.25C4.31818 3.80682 4.38636 3.78409 4.43182 3.73864C4.47727 3.69318 4.5 3.63636 4.5 3.55682V1.28409C4.5 1.21591 4.47727 1.14773 4.43182 1.10227C4.38636 1.05682 4.32955 1.03409 4.25 1.03409H3.75C3.68182 1.03409 3.61364 1.05682 3.56818 1.10227C3.52273 1.14773 3.5 1.21591 3.5 1.28409V3.55682ZM9.5 3.55682C9.5 3.625 9.52273 3.69318 9.56818 3.73864C9.61364 3.78409 9.67045 3.80682 9.75 3.80682H10.25C10.3182 3.80682 10.3864 3.78409 10.4318 3.73864C10.4773 3.69318 10.5 3.63636 10.5 3.55682V1.28409C10.5 1.21591 10.4773 1.14773 10.4318 1.10227C10.3864 1.05682 10.3295 1.03409 10.25 1.03409H9.75C9.68182 1.03409 9.61364 1.05682 9.56818 1.10227C9.52273 1.14773 9.5 1.21591 9.5 1.28409V3.55682Z" fill="white" fill-opacity="0.5"/>
</svg>
