<svg width="15" height="13" viewBox="0 0 15 13" fill="none" xmlns="http://www.w3.org/2000/svg">
<path fill-rule="evenodd" clip-rule="evenodd" d="M9.93615 2.22862H13.9067C14.5105 2.22862 15 2.7181 15 3.32184V11.2373C15 11.8411 14.5105 12.3306 13.9067 12.3306H1.09322C0.489427 12.3306 0 11.8411 0 11.2373V3.32184C0 2.7181 0.489428 2.22862 1.09327 2.22862H1.28265V1.93176C1.28265 1.69166 1.47726 1.497 1.71741 1.497H3.32608C3.56618 1.497 3.76084 1.69166 3.76084 1.93176V2.22862H5.06375L5.86552 0.881688C5.94391 0.749996 6.08585 0.669312 6.23911 0.669312H8.76079C8.91405 0.669312 9.05595 0.749996 9.13439 0.881688L9.93615 2.22862ZM11.8623 4.48252H13.2246C13.4647 4.48252 13.6594 4.28786 13.6594 4.04771C13.6594 3.80756 13.4648 3.6129 13.2246 3.6129H11.8623C11.6222 3.6129 11.4275 3.80756 11.4275 4.04771C11.4275 4.28786 11.6222 4.48252 11.8623 4.48252ZM11 7.5C11 9.433 9.433 11 7.5 11C5.567 11 4 9.433 4 7.5C4 5.567 5.567 4 7.5 4C9.433 4 11 5.567 11 7.5Z" fill="#598DC5"/>
<path d="M7.5 9.5C8.60457 9.5 9.5 8.60457 9.5 7.5C9.5 6.39543 8.60457 5.5 7.5 5.5C6.39543 5.5 5.5 6.39543 5.5 7.5C5.5 8.60457 6.39543 9.5 7.5 9.5Z" fill="#598DC5"/>
</svg>
