<svg width="31" height="27" viewBox="0 0 31 27" fill="none" xmlns="http://www.w3.org/2000/svg">
<path d="M23.4565 20.1826C22.4936 21.7233 21.4536 22.8787 20.3367 23.6491C19.2582 24.3809 17.9872 24.766 16.6006 24.766C15.9073 24.766 15.291 24.6505 14.7133 24.4579C15.7147 23.4565 16.6776 22.1469 17.525 20.5292H16.7932C15.8302 22.0699 14.7903 23.2639 13.6733 23.9957C13.0956 23.6491 12.5563 23.2639 12.0942 22.6862C10.9387 21.2996 10.3609 19.3738 10.3609 17.0243C10.3609 14.6747 10.7846 12.3252 11.5934 10.0528C12.5949 7.2796 13.9815 5.12268 15.7532 3.62054C16.0613 3.35093 16.408 3.11983 16.7546 2.88873C16.8317 2.96576 16.9087 3.00428 16.9472 3.08131C17.3324 3.50499 17.602 4.00571 17.7946 4.58345C17.9872 5.1612 18.1027 5.81598 18.1412 6.58631L18.2183 8.62768H18.796L20.1056 1.8873C20.2211 1.8873 20.3367 1.84879 20.4907 1.84879C20.9529 1.84879 21.3766 1.8873 21.8003 2.00285L23.0713 2.5806C23.3024 2.73467 23.4565 2.88873 23.6491 3.08131C23.9957 3.46648 24.2653 3.96719 24.4579 4.50642L24.8046 6.43224L24.8816 8.78174H26.0371L27.7703 0H27.3852H26.6534L25.6904 1.11698L25.1897 1.23253C25.0742 1.23253 24.7661 1.19401 24.0728 0.885877C22.7632 0.308131 21.5307 0 20.4522 0C18.9886 0 17.525 0.308131 16.0999 0.96291C15.1755 0.616262 14.3281 0.462197 13.5578 0.462197C11.3623 0.462197 9.16691 1.19401 6.97147 2.69615C4.81455 4.19829 3.08131 6.23966 1.84879 8.82026C0.616262 11.4394 0 14.097 0 16.8702C0 18.6805 0.346648 20.3367 1.03994 21.9158C1.73324 23.495 2.77318 24.689 4.08274 25.5364C5.43081 26.3837 6.97147 26.8459 8.70471 26.8459C9.89872 26.8459 10.9387 26.6534 11.9401 26.2682C13.0571 26.7689 14.2896 27 15.6377 27C17.6405 27 19.4123 26.4608 20.8759 25.4208C22.301 24.3809 23.6106 22.7247 24.8046 20.5292L25.0357 20.067H23.6106L23.4565 20.1826ZM9.66762 25.1897C7.70328 25.1897 6.12411 24.4579 4.9301 22.9943C3.69757 21.5307 3.11983 19.6049 3.11983 17.1398C3.11983 14.7518 3.54351 12.4023 4.39087 10.0528C5.43081 7.24108 6.8174 5.04565 8.62768 3.50499C10.0528 2.31098 11.709 1.69472 13.5578 1.69472C13.8659 1.69472 14.174 1.73324 14.4437 1.77175C14.174 1.92582 13.9044 2.07989 13.6733 2.27247C11.4779 3.77461 9.70613 5.89301 8.43509 8.51213C7.16405 11.1312 6.54779 13.9044 6.54779 16.6776C6.54779 18.5264 6.89444 20.2596 7.62625 21.8388C8.24251 23.1869 9.08987 24.2653 10.1683 25.1127C10.0143 25.1897 9.8602 25.1897 9.66762 25.1897Z" fill="white"/>
<path d="M27.5004 16.87L30.081 14.9827L29.3877 14.5205L29.9655 12.9799L28.3093 13.134L27.9626 12.4021L26.8456 13.8273L26.5375 13.6732L27.0767 11.0156L26.3064 11.5933L25.1894 9.66748L24.1495 11.5163L23.3406 10.977L23.8799 13.6732L23.5717 13.7887L22.4933 12.4407L22.1081 13.134L20.529 12.9799L21.0682 14.5591L20.2979 14.9827L22.8785 16.87L22.6474 17.7559L25.0739 17.5248L24.9583 18.8344H25.5361L25.459 17.5248L27.8086 17.7559L27.5004 16.87Z" fill="#A9C6DE"/>
</svg>
