<svg width="16" height="18" viewBox="0 0 16 18" fill="none" xmlns="http://www.w3.org/2000/svg">
<path fill-rule="evenodd" clip-rule="evenodd" d="M7.2953 0.0470675C4.4928 0.863459 2.8954 1.52273 0.649808 2.65486C0.206283 2.87847 -0.0496491 3.35586 0.00806634 3.8492C0.963479 12.0163 2.36035 15.6674 7.15955 17.8966C7.46009 18.0362 7.80766 18.0338 8.10772 17.8932C12.2428 15.955 14.1412 13.2672 15.3325 3.86206C15.3956 3.36368 15.1371 2.87711 14.6866 2.65481C12.3726 1.51294 10.7214 0.888889 7.97189 0.0514991C7.75182 -0.0155196 7.51616 -0.0172634 7.2953 0.0470675ZM10.9426 7.39706C11.1921 7.11724 11.1668 6.68871 10.8861 6.44001C10.6054 6.19123 10.1757 6.21643 9.92621 6.49633L6.80806 9.99381L5.50304 8.53009C5.25354 8.25019 4.82381 8.22499 4.54312 8.47377C4.26244 8.72247 4.23716 9.151 4.48664 9.43082L6.29986 11.4646C6.42889 11.6093 6.61383 11.6922 6.80806 11.6922C7.00228 11.6922 7.18723 11.6093 7.31626 11.4646L10.9426 7.39706Z" fill="#364963"/>
</svg>
