<svg width="20" height="20" viewBox="0 0 20 20" fill="none" xmlns="http://www.w3.org/2000/svg">
<rect x="0.5" y="0.5" width="19" height="19" rx="1.5" stroke="#5A92C9"/>
<path d="M6.96064 9.42169C6.60562 9.77671 6.03002 9.77671 5.67499 9.42169C5.31997 9.06667 5.31997 8.49106 5.67499 8.13604L9.53194 4.27909C9.70243 4.10861 9.93366 4.01283 10.1748 4.01283C10.4159 4.01283 10.6471 4.10861 10.8176 4.2791L14.6745 8.13605C15.0296 8.49107 15.0296 9.06667 14.6745 9.42169C14.3195 9.77672 13.7439 9.77671 13.3889 9.42169L11.0839 7.11666L11.0839 15.4277C11.0839 15.9298 10.6768 16.3368 10.1748 16.3368C9.67269 16.3368 9.26567 15.9298 9.26567 15.4277L9.26567 7.11666L6.96064 9.42169Z" fill="#5A92C9"/>
</svg>
