<svg width="15" height="14" viewBox="0 0 15 14" fill="none" xmlns="http://www.w3.org/2000/svg">
<path fill-rule="evenodd" clip-rule="evenodd" d="M7.42569 11.5413C5.30692 11.5413 3.08531 10.2513 1.35421 7.45817C3.08531 4.665 5.30692 3.375 7.42569 3.375C9.54446 3.375 11.7661 4.665 13.4972 7.45817C11.7661 10.2513 9.54446 11.5413 7.42569 11.5413ZM14.7662 7.14325C12.8609 3.87696 10.1986 2.125 7.42569 2.125C4.6528 2.125 1.99048 3.87696 0.0851383 7.14325C-0.0283794 7.33785 -0.0283794 7.57849 0.0851383 7.77309C1.99048 11.0394 4.6528 12.7913 7.42569 12.7913C10.1986 12.7913 12.8609 11.0394 14.7662 7.77309C14.8798 7.57849 14.8798 7.33785 14.7662 7.14325ZM7.42567 10.597C9.15917 10.597 10.5644 9.19168 10.5644 7.45817C10.5644 5.72467 9.15917 4.31939 7.42567 4.31939C5.69217 4.31939 4.28689 5.72467 4.28689 7.45817C4.28689 9.19168 5.69217 10.597 7.42567 10.597Z" fill="white"/>
<path d="M1.875 1L13.875 13" stroke="white" stroke-width="1.5" stroke-linecap="round" stroke-linejoin="round"/>
</svg>
