<svg width="11" height="12" viewBox="0 0 11 12" fill="none" xmlns="http://www.w3.org/2000/svg">
<path fill-rule="evenodd" clip-rule="evenodd" d="M2.76318 0C1.93476 0 1.26318 0.671572 1.26318 1.5V9.23684C1.26318 10.0653 1.93476 10.7368 2.76318 10.7368H8.60529C9.43372 10.7368 10.1053 10.0653 10.1053 9.23684V1.5C10.1053 0.671573 9.43371 0 8.60529 0H2.76318ZM4.00666 8.4275C4.00666 8.65633 4.19218 8.84204 4.421 8.84204C4.65002 8.84204 4.83554 8.65633 4.83554 8.4275V7.04595H6.21709C6.44601 7.04595 6.63153 6.86044 6.63153 6.63152C6.63153 6.4025 6.44601 6.21698 6.21709 6.21698H4.83554V4.83533C4.83554 4.60661 4.65002 4.42099 4.421 4.42099C4.19218 4.42099 4.00666 4.6067 4.00666 4.83533V6.21698H2.62501C2.39619 6.21698 2.21057 6.40259 2.21057 6.63152C2.21057 6.86044 2.39619 7.04595 2.62501 7.04595H4.00666V8.4275Z" fill="#B3D1E9"/>
<path fill-rule="evenodd" clip-rule="evenodd" d="M1.5 1.26318C0.671573 1.26318 0 1.93476 0 2.76318V10.5C0 11.3285 0.671573 12 1.5 12H7.3421C8.17053 12 8.8421 11.3285 8.8421 10.5V2.76318C8.8421 1.93476 8.17053 1.26318 7.3421 1.26318H1.5ZM4.0066 8.4275C4.0066 8.65633 4.19212 8.84204 4.42094 8.84204C4.64996 8.84204 4.83548 8.65633 4.83548 8.4275V7.04595H6.21702C6.44595 7.04595 6.63146 6.86044 6.63146 6.63152C6.63146 6.4025 6.44595 6.21698 6.21702 6.21698H4.83548V4.83533C4.83548 4.60661 4.64996 4.42099 4.42094 4.42099C4.19212 4.42099 4.0066 4.6067 4.0066 4.83533V6.21698H2.62495C2.39613 6.21698 2.21051 6.40259 2.21051 6.63152C2.21051 6.86044 2.39613 7.04595 2.62495 7.04595H4.0066V8.4275Z" fill="#386EB4"/>
</svg>
