<svg width="18" height="18" viewBox="0 0 18 18" fill="none" xmlns="http://www.w3.org/2000/svg">
<path d="M11.0625 0H16.6875C17.4113 0 18 0.58873 18 1.31245V4.68745C18 5.41132 17.4113 6.00005 16.6875 6.00005H11.0625C10.3387 6.00005 9.74995 5.41132 9.74995 4.68745V1.31245C9.74995 0.58873 10.3387 0 11.0625 0Z" fill="#6F93B6" fill-opacity="0.4"/>
<path d="M11.0625 7.5H16.6875C17.4113 7.5 18 8.08873 18 8.81259V16.6876C18 17.4113 17.4113 18 16.6875 18H11.0625C10.3387 18 9.74995 17.4113 9.74995 16.6876V8.81259C9.74995 8.08873 10.3387 7.5 11.0625 7.5Z" fill="#6F93B6" fill-opacity="0.4"/>
<path d="M1.31241 12H6.93741C7.66127 12 8.25 12.5887 8.25 13.3126V16.6876C8.25 17.4113 7.66127 18 6.93741 18H1.31241C0.588684 18 -4.57764e-05 17.4113 -4.57764e-05 16.6876V13.3126C-4.57764e-05 12.5887 0.588684 12 1.31241 12Z" fill="#6F93B6" fill-opacity="0.4"/>
<path d="M1.31241 0H6.93741C7.66127 0 8.25 0.58873 8.25 1.31245V9.18745C8.25 9.91132 7.66127 10.5 6.93741 10.5H1.31241C0.588684 10.5 -4.57764e-05 9.91132 -4.57764e-05 9.18745V1.31245C-4.57764e-05 0.58873 0.588684 0 1.31241 0V0Z" fill="#6F93B6" fill-opacity="0.4"/>
</svg>
