<svg width="35" height="4" viewBox="0 0 35 4" fill="none" xmlns="http://www.w3.org/2000/svg">
<path d="M1.30371 3.14355C0.984701 3.14355 0.722656 3.04102 0.517578 2.83594C0.3125 2.63086 0.209961 2.37337 0.209961 2.06348C0.209961 1.74902 0.3125 1.49154 0.517578 1.29102C0.722656 1.08594 0.984701 0.983398 1.30371 0.983398C1.62728 0.983398 1.88932 1.08594 2.08984 1.29102C2.29492 1.49154 2.39746 1.74902 2.39746 2.06348C2.39746 2.37337 2.29492 2.63086 2.08984 2.83594C1.88932 3.04102 1.62728 3.14355 1.30371 3.14355ZM5.91113 3.14355C5.59212 3.14355 5.33008 3.04102 5.125 2.83594C4.91992 2.63086 4.81738 2.37337 4.81738 2.06348C4.81738 1.74902 4.91992 1.49154 5.125 1.29102C5.33008 1.08594 5.59212 0.983398 5.91113 0.983398C6.2347 0.983398 6.49674 1.08594 6.69727 1.29102C6.90234 1.49154 7.00488 1.74902 7.00488 2.06348C7.00488 2.37337 6.90234 2.63086 6.69727 2.83594C6.49674 3.04102 6.2347 3.14355 5.91113 3.14355ZM10.5186 3.14355C10.1995 3.14355 9.9375 3.04102 9.73242 2.83594C9.52734 2.63086 9.4248 2.37337 9.4248 2.06348C9.4248 1.74902 9.52734 1.49154 9.73242 1.29102C9.9375 1.08594 10.1995 0.983398 10.5186 0.983398C10.8421 0.983398 11.1042 1.08594 11.3047 1.29102C11.5098 1.49154 11.6123 1.74902 11.6123 2.06348C11.6123 2.37337 11.5098 2.63086 11.3047 2.83594C11.1042 3.04102 10.8421 3.14355 10.5186 3.14355ZM15.126 3.14355C14.807 3.14355 14.5449 3.04102 14.3398 2.83594C14.1348 2.63086 14.0322 2.37337 14.0322 2.06348C14.0322 1.74902 14.1348 1.49154 14.3398 1.29102C14.5449 1.08594 14.807 0.983398 15.126 0.983398C15.4495 0.983398 15.7116 1.08594 15.9121 1.29102C16.1172 1.49154 16.2197 1.74902 16.2197 2.06348C16.2197 2.37337 16.1172 2.63086 15.9121 2.83594C15.7116 3.04102 15.4495 3.14355 15.126 3.14355ZM19.7334 3.14355C19.4144 3.14355 19.1523 3.04102 18.9473 2.83594C18.7422 2.63086 18.6396 2.37337 18.6396 2.06348C18.6396 1.74902 18.7422 1.49154 18.9473 1.29102C19.1523 1.08594 19.4144 0.983398 19.7334 0.983398C20.057 0.983398 20.319 1.08594 20.5195 1.29102C20.7246 1.49154 20.8271 1.74902 20.8271 2.06348C20.8271 2.37337 20.7246 2.63086 20.5195 2.83594C20.319 3.04102 20.057 3.14355 19.7334 3.14355ZM24.3408 3.14355C24.0218 3.14355 23.7598 3.04102 23.5547 2.83594C23.3496 2.63086 23.2471 2.37337 23.2471 2.06348C23.2471 1.74902 23.3496 1.49154 23.5547 1.29102C23.7598 1.08594 24.0218 0.983398 24.3408 0.983398C24.6644 0.983398 24.9264 1.08594 25.127 1.29102C25.332 1.49154 25.4346 1.74902 25.4346 2.06348C25.4346 2.37337 25.332 2.63086 25.127 2.83594C24.9264 3.04102 24.6644 3.14355 24.3408 3.14355ZM28.9482 3.14355C28.6292 3.14355 28.3672 3.04102 28.1621 2.83594C27.957 2.63086 27.8545 2.37337 27.8545 2.06348C27.8545 1.74902 27.957 1.49154 28.1621 1.29102C28.3672 1.08594 28.6292 0.983398 28.9482 0.983398C29.2718 0.983398 29.5339 1.08594 29.7344 1.29102C29.9395 1.49154 30.042 1.74902 30.042 2.06348C30.042 2.37337 29.9395 2.63086 29.7344 2.83594C29.5339 3.04102 29.2718 3.14355 28.9482 3.14355ZM33.5557 3.14355C33.2367 3.14355 32.9746 3.04102 32.7695 2.83594C32.5645 2.63086 32.4619 2.37337 32.4619 2.06348C32.4619 1.74902 32.5645 1.49154 32.7695 1.29102C32.9746 1.08594 33.2367 0.983398 33.5557 0.983398C33.8792 0.983398 34.1413 1.08594 34.3418 1.29102C34.5469 1.49154 34.6494 1.74902 34.6494 2.06348C34.6494 2.37337 34.5469 2.63086 34.3418 2.83594C34.1413 3.04102 33.8792 3.14355 33.5557 3.14355Z" fill="#598DC5"/>
</svg>
