<svg width="12" height="15" viewBox="0 0 12 15" fill="none" xmlns="http://www.w3.org/2000/svg">
<path d="M6 0C6.41421 0 6.75 0.335786 6.75 0.75V8.68934L8.46967 6.96967C8.76256 6.67678 9.23744 6.67678 9.53033 6.96967C9.82322 7.26256 9.82322 7.73744 9.53033 8.03033L6.53033 11.0303C6.23744 11.3232 5.76256 11.3232 5.46967 11.0303L2.46967 8.03033C2.17678 7.73744 2.17678 7.26256 2.46967 6.96967C2.76256 6.67678 3.23744 6.67678 3.53033 6.96967L5.25 8.68934V0.75C5.25 0.335786 5.58579 0 6 0ZM0.75 11.25C1.16421 11.25 1.5 11.5858 1.5 12V13.5H10.5V12C10.5 11.5858 10.8358 11.25 11.25 11.25C11.6642 11.25 12 11.5858 12 12V13.5C12 14.3284 11.3284 15 10.5 15H1.5C0.671573 15 0 14.3284 0 13.5V12C0 11.5858 0.335786 11.25 0.75 11.25Z" fill="#598DC5"/>
</svg>
