<svg width="6" height="6" viewBox="0 0 6 6" fill="none" xmlns="http://www.w3.org/2000/svg">
<path d="M0.297995 5.29799C0.0601077 5.06011 0.0603118 4.67417 0.298199 4.43628L1.73448 3L0.298097 1.56362C0.0602099 1.32573 0.0601081 0.939892 0.298097 0.701903C0.536086 0.463914 0.922028 0.463914 1.15992 0.701801L2.5963 2.13818L4.03268 0.701801C4.27036 0.464118 4.6563 0.463913 4.89419 0.7018C5.13228 0.939892 5.13218 1.32573 4.89439 1.56352L3.45801 2.9999L4.89429 4.43618C5.13228 4.67417 5.13228 5.0599 4.89419 5.29799C4.6562 5.53598 4.27046 5.53598 4.03247 5.298L2.59619 3.86172L1.15992 5.29799C0.922028 5.53588 0.536086 5.53609 0.297995 5.29799Z" fill="#F05555"/>
</svg>
