<svg width="15" height="11" viewBox="0 0 15 11" fill="none" xmlns="http://www.w3.org/2000/svg">
<path fill-rule="evenodd" clip-rule="evenodd" d="M7.42569 9.54134C5.30692 9.54134 3.08531 8.25134 1.35421 5.45817C3.08531 2.665 5.30692 1.375 7.42569 1.375C9.54446 1.375 11.7661 2.665 13.4972 5.45817C11.7661 8.25134 9.54446 9.54134 7.42569 9.54134ZM14.7662 5.14325C12.8609 1.87696 10.1986 0.125 7.42569 0.125C4.6528 0.125 1.99048 1.87696 0.0851383 5.14325C-0.0283794 5.33785 -0.0283794 5.57849 0.0851383 5.77309C1.99048 9.03938 4.6528 10.7913 7.42569 10.7913C10.1986 10.7913 12.8609 9.03939 14.7662 5.77309C14.8798 5.57849 14.8798 5.33785 14.7662 5.14325ZM7.42567 8.59696C9.15917 8.59696 10.5644 7.19168 10.5644 5.45817C10.5644 3.72467 9.15917 2.31939 7.42567 2.31939C5.69217 2.31939 4.28689 3.72467 4.28689 5.45817C4.28689 7.19168 5.69217 8.59696 7.42567 8.59696Z" fill="white"/>
</svg>
