<svg width="15" height="15" viewBox="0 0 15 15" fill="none" xmlns="http://www.w3.org/2000/svg">
<path d="M11.6667 4.16667C11.3378 4.15823 11.0247 4.02383 10.7921 3.79121C10.5595 3.55859 10.4251 3.24553 10.4167 2.91667C10.4167 2.58515 10.5484 2.2672 10.7828 2.03278C11.0172 1.79836 11.3351 1.66667 11.6667 1.66667C11.9982 1.66667 12.3161 1.79836 12.5505 2.03278C12.785 2.2672 12.9167 2.58515 12.9167 2.91667C12.9082 3.24553 12.7738 3.55859 12.5412 3.79121C12.3086 4.02383 11.9955 4.15823 11.6667 4.16667ZM10.4167 0C9.20446 0.0108725 8.04497 0.497249 7.18778 1.35444C6.33058 2.21164 5.84421 3.37112 5.83333 4.58333C5.85883 5.39386 6.05775 6.1895 6.41667 6.91667L0 13.3333V15H3.33333V13.3333H5V11.6667H6.66667L9.33333 9C9.68703 9.0961 10.0504 9.15201 10.4167 9.16667C11.6289 9.15579 12.7884 8.66942 13.6456 7.81222C14.5028 6.95503 14.9891 5.79554 15 4.58333C14.9891 3.37112 14.5028 2.21164 13.6456 1.35444C12.7884 0.497249 11.6289 0.0108725 10.4167 0Z" fill="#F05555"/>
</svg>
