<svg width="25" height="15" viewBox="0 0 25 15" fill="none" xmlns="http://www.w3.org/2000/svg">
<path d="M15.3981 1.60449H8.83496V13.3958H15.3981V1.60449Z" fill="#FF5A00"/>
<path d="M9.27184 7.5C9.27184 5.10437 10.3981 2.97816 12.1262 1.60437C10.8544 0.604369 9.25 0 7.5 0C3.35437 0 0 3.35437 0 7.5C0 11.6456 3.35437 15 7.5 15C9.25 15 10.8544 14.3956 12.1262 13.3956C10.3956 12.0413 9.27184 9.89563 9.27184 7.5Z" fill="#EB001B"/>
<path d="M24.2527 7.5C24.2527 11.6456 20.8983 15 16.7527 15C15.0027 15 13.3983 14.3956 12.1265 13.3956C13.8765 12.0194 14.9808 9.89563 14.9808 7.5C14.9808 5.10437 13.8546 2.97816 12.1265 1.60437C13.3959 0.604369 15.0003 0 16.7503 0C20.8983 0 24.2527 3.37621 24.2527 7.5Z" fill="#F79E1B"/>
</svg>
