<svg width="13" height="4" viewBox="0 0 13 4" fill="none" xmlns="http://www.w3.org/2000/svg">
<path d="M2.30859 2.85645C2.08984 3.0752 1.79818 3.18457 1.43359 3.18457C1.06901 3.18457 0.775065 3.0752 0.551758 2.85645C0.333008 2.63314 0.223633 2.34603 0.223633 1.99512C0.223633 1.64876 0.333008 1.36621 0.551758 1.14746C0.775065 0.924154 1.06901 0.8125 1.43359 0.8125C1.79818 0.8125 2.08984 0.921875 2.30859 1.14062C2.5319 1.35938 2.64355 1.64421 2.64355 1.99512C2.64355 2.34603 2.5319 2.63314 2.30859 2.85645ZM7.17578 2.85645C6.95703 3.0752 6.66536 3.18457 6.30078 3.18457C5.9362 3.18457 5.64225 3.0752 5.41895 2.85645C5.2002 2.63314 5.09082 2.34603 5.09082 1.99512C5.09082 1.64876 5.2002 1.36621 5.41895 1.14746C5.64225 0.924154 5.9362 0.8125 6.30078 0.8125C6.66536 0.8125 6.95703 0.921875 7.17578 1.14062C7.39909 1.35938 7.51074 1.64421 7.51074 1.99512C7.51074 2.34603 7.39909 2.63314 7.17578 2.85645ZM12.043 2.85645C11.8242 3.0752 11.5326 3.18457 11.168 3.18457C10.8034 3.18457 10.5094 3.0752 10.2861 2.85645C10.0674 2.63314 9.95801 2.34603 9.95801 1.99512C9.95801 1.64876 10.0674 1.36621 10.2861 1.14746C10.5094 0.924154 10.8034 0.8125 11.168 0.8125C11.5326 0.8125 11.8242 0.921875 12.043 1.14062C12.2663 1.35938 12.3779 1.64421 12.3779 1.99512C12.3779 2.34603 12.2663 2.63314 12.043 2.85645Z" fill="#598DC5"/>
</svg>
