<svg width="11" height="13" viewBox="0 0 11 13" fill="none" xmlns="http://www.w3.org/2000/svg">
<path d="M11 0.00905215C6.73098 -0.132904 3.23431 1.44174 3.23431 1.44174L3.23177 9.43272C2.7971 9.26019 2.26852 9.21928 1.73166 9.34977C0.574221 9.63101 -0.18373 10.6011 0.0387622 11.517C0.261254 12.4328 1.37983 12.9474 2.53715 12.6663C3.62845 12.4011 4.36423 11.5233 4.25834 10.6564V4.68572C4.25834 4.68572 6.73098 3.82124 9.93826 3.60448V8.04527C9.50831 7.88063 8.9898 7.8433 8.46275 7.97136C7.30531 8.25247 6.54736 9.22259 6.76985 10.1386C6.99221 11.0544 8.11079 11.5688 9.26823 11.2877C10.2789 11.0422 10.9848 10.2712 10.9996 9.47006L11 9.47057V0.00905215Z" fill="#6FCE6D"/>
</svg>
