<svg width="15" height="15" viewBox="0 0 15 15" fill="none" xmlns="http://www.w3.org/2000/svg">
<path d="M9.16667 1.66667C8.70643 1.66667 8.33333 1.29357 8.33333 0.833333C8.33333 0.373096 8.70643 0 9.16667 0H14.1667C14.3877 0 14.5996 0.0877975 14.7559 0.244078C14.9122 0.400358 15 0.61232 15 0.833333L15 5.83333C15 6.29357 14.6269 6.66667 14.1667 6.66667C13.7064 6.66667 13.3333 6.29357 13.3333 5.83333L13.3333 2.84518L5.58926 10.5893C5.26382 10.9147 4.73618 10.9147 4.41074 10.5893C4.08531 10.2638 4.08531 9.73618 4.41074 9.41074L12.1548 1.66667H9.16667ZM0 3.33333C0 2.41286 0.746192 1.66667 1.66667 1.66667H5.83333C6.29357 1.66667 6.66667 2.03976 6.66667 2.5C6.66667 2.96024 6.29357 3.33333 5.83333 3.33333H1.66667V13.3333H11.6667V9.16667C11.6667 8.70643 12.0398 8.33333 12.5 8.33333C12.9602 8.33333 13.3333 8.70643 13.3333 9.16667V13.3333C13.3333 14.2538 12.5871 15 11.6667 15H1.66667C0.746192 15 0 14.2538 0 13.3333V3.33333Z" fill="#6FCE6D"/>
</svg>
