<svg width="18" height="12" viewBox="0 0 18 12" fill="none" xmlns="http://www.w3.org/2000/svg">
<path d="M12.0208 2.65685C11.6303 2.26633 11.6303 1.63316 12.0208 1.24264C12.4113 0.852116 13.0445 0.852116 13.435 1.24264L17.6777 5.48528C17.8652 5.67282 17.9706 5.92717 17.9706 6.19239C17.9706 6.4576 17.8652 6.71196 17.6777 6.89949L13.435 11.1421C13.0445 11.5327 12.4113 11.5327 12.0208 11.1421C11.6303 10.7516 11.6303 10.1184 12.0208 9.72792L14.5563 7.19239L1.41421 7.19239C0.861924 7.19239 0.414209 6.74467 0.414209 6.19239C0.414209 5.6401 0.861924 5.19239 1.41421 5.19239L14.5563 5.19239L12.0208 2.65685Z" fill="white"/>
</svg>
