<svg width="17" height="18" viewBox="0 0 17 18" fill="none" xmlns="http://www.w3.org/2000/svg">
<path d="M15.7847 10.3089L15.4465 10.1134C15.0441 9.88137 14.8037 9.46476 14.8037 9C14.8037 8.53521 15.0441 8.11864 15.4465 7.88657L15.7847 7.69114C16.7078 7.15757 17.0235 5.97986 16.4905 5.05671L15.8477 3.94329C15.316 3.02207 14.1338 2.70579 13.2133 3.23743L12.8751 3.43221C12.4727 3.66493 11.9912 3.66493 11.5894 3.43221C11.187 3.1995 10.9465 2.78357 10.9465 2.31879V1.92857C10.9465 0.865286 10.0813 0 9.018 0H7.73225C6.66896 0 5.80368 0.865286 5.80368 1.92857V2.31943C5.80368 2.78421 5.56325 3.20014 5.16083 3.43286C4.75839 3.66493 4.27754 3.66557 3.8751 3.43286L3.53696 3.23743C2.61639 2.70579 1.43418 3.02207 0.90189 3.94329L0.259035 5.05671C-0.273893 5.97986 0.0417493 7.15821 0.96489 7.69114L1.30368 7.88657C1.7061 8.11864 1.94654 8.53521 1.94654 9C1.94654 9.46476 1.7061 9.88137 1.30368 10.1134L0.965538 10.3089C0.0423918 10.8418 -0.273251 12.0201 0.259678 12.9433L0.902538 14.0567C1.43483 14.9779 2.61704 15.2942 3.53696 14.7626L3.8751 14.5678C4.27754 14.3344 4.75839 14.3357 5.16083 14.5678C5.56325 14.8005 5.80368 15.2164 5.80368 15.6812V16.0714C5.80368 17.1347 6.66896 18 7.73225 18H9.018C10.0813 18 10.9465 17.1347 10.9465 16.0714V15.6806C10.9465 15.2158 11.187 14.7999 11.5894 14.5671C11.9912 14.3351 12.4727 14.3344 12.8751 14.5671L13.2133 14.7626C14.1338 15.2936 15.316 14.9773 15.8477 14.0567L16.4905 12.9433C17.0235 12.0201 16.7078 10.8418 15.7847 10.3089ZM8.3751 12.2143C6.60275 12.2143 5.16083 10.7724 5.16083 9C5.16083 7.22764 6.60275 5.78571 8.3751 5.78571C10.1475 5.78571 11.5894 7.22764 11.5894 9C11.5894 10.7724 10.1475 12.2143 8.3751 12.2143Z" fill="#364963"/>
</svg>
