<svg width="38" height="7" viewBox="0 0 38 7" fill="none" xmlns="http://www.w3.org/2000/svg">
<path d="M33.9467 5.72949V3.65339H37.3244V2.8243H33.9467V0.9302H37.9015V0.0943681H32.9826V6.56532H38V5.72949H33.9467ZM23.9541 5.44639L20.8156 0.0943681H19.4644V6.56532H20.4285V1.2133L23.567 6.56532H24.9181V0.0943681H23.9541V5.44639ZM14.0178 3.65339H17.3956V2.8243H14.0178V0.9302H17.9726V0.0943681H13.0537V6.56532H18.0711V5.72949H14.0178V3.65339ZM28.9785 0.835832H29.077C29.9004 0.835832 30.5126 1.30093 30.5618 2.03565H31.5259C31.4767 0.788647 30.5196 0 29.0278 0C27.5711 0 26.6141 0.829091 26.6141 1.84692C26.6141 2.86475 27.2404 3.45792 28.3241 3.66687L29.4078 3.88257C30.1185 4.02412 30.4704 4.32745 30.4704 4.85322C30.4704 5.37898 29.9778 5.82386 29.07 5.82386H28.9715C27.9581 5.82386 27.2474 5.35876 27.2474 4.48248H26.2833C26.3326 5.91149 27.3459 6.65295 28.9363 6.65295C30.4281 6.65295 31.4344 5.95193 31.4344 4.81277C31.4344 3.76124 30.7589 3.16807 29.5907 2.94563L28.507 2.74341C27.937 2.63557 27.5781 2.33898 27.5781 1.84018C27.5781 1.26723 28.1411 0.835832 28.9785 0.835832ZM9.04259 0.835832H9.14111C9.96444 0.835832 10.5767 1.30093 10.6259 2.03565H11.59C11.5407 0.788647 10.5837 0 9.08482 0C7.62815 0 6.67111 0.829091 6.67111 1.84692C6.67111 2.86475 7.29741 3.45792 8.38111 3.66687L9.46481 3.88257C10.1756 4.02412 10.5274 4.32745 10.5274 4.85322C10.5274 5.37898 10.0348 5.82386 9.12704 5.82386H9.02852C8.01519 5.82386 7.30444 5.35876 7.30444 4.48248H6.34037C6.38963 5.91149 7.40296 6.65295 8.99333 6.65295C10.4852 6.65295 11.4915 5.95193 11.4915 4.81277C11.4915 3.76124 10.8159 3.16807 9.64778 2.94563L8.56407 2.74341C7.99407 2.63557 7.63518 2.33898 7.63518 1.84018C7.64222 1.26723 8.19815 0.835832 9.04259 0.835832ZM2.70222 0.835832H2.80074C3.62407 0.835832 4.2363 1.30093 4.28556 2.03565H5.24963C5.20037 0.788647 4.24333 0 2.75148 0C1.29481 0 0.337778 0.835831 0.337778 1.85366C0.337778 2.87149 0.964074 3.46466 2.04778 3.67361L3.13148 3.88931C3.84222 4.03087 4.19407 4.33419 4.19407 4.85996C4.19407 5.38572 3.69444 5.82386 2.78667 5.82386H2.68815C1.67481 5.82386 0.964074 5.35876 0.964074 4.48248H0C0.0492593 5.91149 1.06259 6.65295 2.65296 6.65295C4.14481 6.65295 5.15111 5.95193 5.15111 4.81277C5.15111 3.76124 4.47556 3.16807 3.30741 2.94563L2.2237 2.74341C1.6537 2.63557 1.29481 2.33898 1.29481 1.84018C1.30185 1.26723 1.86481 0.835832 2.70222 0.835832Z" fill="white"/>
</svg>
