<svg width="13" height="15" viewBox="0 0 13 15" fill="none" xmlns="http://www.w3.org/2000/svg">
<path d="M9.22184 1.90625C9.25216 2.01328 9.37421 2.1 9.49626 2.1H11.8559C12.2844 2.1 12.6316 2.41328 12.6316 2.79999C12.6316 3.11953 12.3944 3.38827 12.0715 3.47265L11.6664 13.5258C11.6335 14.3437 10.8795 15 9.97058 15H2.66102C1.75379 15 0.998084 14.343 0.965195 13.5258L0.560072 3.47265C0.237188 3.38827 0 3.11953 0 2.79999C0 2.41328 0.347128 2.1 0.775632 2.1H3.13532C3.25738 2.1 3.38031 2.01171 3.40974 1.90625L3.57508 1.30703C3.78024 0.566417 4.58358 0 5.42847 0H7.20306C8.04884 0 8.85126 0.566397 9.05645 1.30703L9.22184 1.90625ZM5.76186 5.30003V12.1C5.76186 12.3758 6.0103 12.6 6.31588 12.6C6.62146 12.6 6.8699 12.3758 6.8699 12.1V5.30003C6.8699 5.02425 6.62146 4.80003 6.31588 4.80003C6.0103 4.80003 5.76186 5.02425 5.76186 5.30003ZM3.21336 5.31487L3.43496 12.1149C3.44448 12.3906 3.69985 12.6078 4.00543 12.6C4.31101 12.5914 4.55165 12.3609 4.54301 12.0852L4.3214 5.28519C4.31188 5.00942 4.05651 4.79223 3.75093 4.80003C3.44536 4.80863 3.20471 5.03909 3.21336 5.31487ZM8.3104 5.28519L8.08879 12.0851C8.08011 12.3609 8.32074 12.5914 8.62634 12.6C8.93187 12.6078 9.18726 12.3906 9.19682 12.1148L9.41842 5.31486C9.42703 5.03908 9.18639 4.80863 8.88079 4.80002C8.57526 4.79222 8.31987 5.00941 8.3104 5.28519ZM5.06489 2.1H7.56664C7.62724 2.1 7.66532 2.05704 7.65061 2.00391L7.55106 1.64609C7.51903 1.5289 7.33637 1.39999 7.20306 1.39999H5.42847C5.29516 1.39999 5.1125 1.5289 5.08048 1.64609L4.98092 2.00391C4.96621 2.05782 5.00429 2.1 5.06489 2.1Z" fill="#F05555"/>
</svg>
