<svg width="19" height="15" viewBox="0 0 19 15" fill="none" xmlns="http://www.w3.org/2000/svg">
<path d="M18.4575 1.77562C17.7785 2.07684 17.0486 2.28034 16.2827 2.37189C17.0644 1.90325 17.665 1.16117 17.9476 0.276865C17.2159 0.710894 16.4055 1.02596 15.5429 1.19577C14.8522 0.459777 13.8681 0 12.7789 0C10.6876 0 8.99203 1.69542 8.99203 3.78666C8.99203 4.08346 9.02553 4.37251 9.09014 4.64965C5.94294 4.49174 3.15271 2.98413 1.28498 0.693081C0.959024 1.25234 0.772233 1.90279 0.772233 2.5968C0.772233 3.9106 1.44077 5.06965 2.45685 5.7487C1.83613 5.72904 1.25222 5.55868 0.741686 5.27508C0.741255 5.29086 0.741255 5.30673 0.741255 5.3227C0.741255 7.15738 2.04658 8.68779 3.77891 9.0359C3.46116 9.12246 3.12662 9.1687 2.78128 9.1687C2.53727 9.1687 2.30009 9.14489 2.06882 9.10078C2.55074 10.6052 3.94918 11.7 5.6063 11.7304C4.3103 12.7461 2.67755 13.3516 0.903314 13.3516C0.597656 13.3516 0.296244 13.3336 0 13.2986C1.67585 14.3731 3.66632 15 5.80481 15C12.77 15 16.579 9.22989 16.579 4.22567C16.579 4.06149 16.5753 3.89824 16.5681 3.73572C17.3078 3.20192 17.9498 2.53505 18.4575 1.77562H18.4575Z" fill="white"/>
</svg>
