<svg width="12" height="15" viewBox="0 0 12 15" fill="none" xmlns="http://www.w3.org/2000/svg">
<path d="M5.46967 0.21967C5.76256 -0.0732233 6.23744 -0.0732233 6.53033 0.21967L9.53033 3.21967C9.82322 3.51256 9.82322 3.98744 9.53033 4.28033C9.23744 4.57322 8.76256 4.57322 8.46967 4.28033L6.75 2.56066V10.5C6.75 10.9142 6.41421 11.25 6 11.25C5.58579 11.25 5.25 10.9142 5.25 10.5V2.56066L3.53033 4.28033C3.23744 4.57322 2.76256 4.57322 2.46967 4.28033C2.17678 3.98744 2.17678 3.51256 2.46967 3.21967L5.46967 0.21967ZM0.75 11.25C1.16421 11.25 1.5 11.5858 1.5 12V13.5H10.5V12C10.5 11.5858 10.8358 11.25 11.25 11.25C11.6642 11.25 12 11.5858 12 12V13.5C12 14.3284 11.3284 15 10.5 15H1.5C0.671573 15 0 14.3284 0 13.5V12C0 11.5858 0.335786 11.25 0.75 11.25Z" fill="#598DC5"/>
</svg>
