<svg width="28" height="32" viewBox="0 0 28 32" fill="none" xmlns="http://www.w3.org/2000/svg">
<path d="M13.9981 0C12.8025 0 11.8522 0.667669 11.8522 1.48048L12.5783 9.70234C12.6584 10.1977 13.2652 10.5798 13.9988 10.5798C14.7338 10.5788 15.3384 10.1971 15.4203 9.70234L16.1498 1.48048C16.1498 0.667739 15.1969 6.98143e-05 13.9995 6.98143e-05L13.9981 0ZM2.16542 6.59518C1.54472 6.60991 0.839611 7.07985 0.391089 7.8575C-0.208755 8.893 -0.10246 10.0502 0.599384 10.4562L8.0819 13.9408C8.54934 14.1146 9.1842 13.7827 9.55182 13.1489C9.55177 13.149 9.55187 13.1488 9.55182 13.1489C9.92116 12.512 9.89257 11.7955 9.50376 11.4778L2.74574 6.73778C2.57022 6.63612 2.37233 6.59028 2.16542 6.59518ZM25.8307 6.59518C25.6239 6.59027 25.4267 6.63602 25.2516 6.73768L18.4926 11.4777C18.1061 11.7954 18.0775 12.5115 18.4449 13.1484C18.8139 13.7822 19.4471 14.1145 19.9145 13.9407L27.4004 10.4562C28.1051 10.0503 28.2061 8.89312 27.6103 7.85757C27.1598 7.07991 26.4535 6.60999 25.8329 6.59526L25.8307 6.59518ZM8.36144 17.4428C8.26464 17.4414 8.1708 17.4564 8.08294 17.4895L0.600407 20.9699C-0.101419 21.3776 -0.207705 22.5353 0.392123 23.5719C0.990152 24.6053 2.04426 25.0966 2.74626 24.6913L9.50481 19.955C9.89368 19.6334 9.92237 18.9175 9.55288 18.2812L9.55594 18.2826C9.25721 17.7643 8.78092 17.4485 8.36144 17.4428ZM19.638 17.4428C19.219 17.4485 18.7437 17.7644 18.4442 18.2827L18.447 18.2813C18.0793 18.9176 18.1077 19.6335 18.4943 19.9551L25.2532 24.6915C25.9539 25.0967 27.0091 24.6054 27.6098 23.572C28.2056 22.5353 28.1046 21.3777 27.3998 20.97L19.9163 17.4896C19.8284 17.4565 19.7347 17.4414 19.638 17.4428ZM13.997 20.8502C13.2647 20.8511 12.6593 21.2316 12.5793 21.7256L11.8532 29.9471C11.8532 30.7613 12.8035 31.4276 13.9991 31.4276C15.1969 31.4276 16.149 30.7613 16.149 29.9471L15.4212 21.7256C15.3394 21.2316 14.7347 20.8512 13.9997 20.8502H13.997Z" fill="white"/>
</svg>
