<svg width="16" height="16" viewBox="0 0 16 16" fill="none" xmlns="http://www.w3.org/2000/svg">
<path d="M12.9226 8.00388C12.9226 7.66521 12.6515 7.39085 12.3174 7.39085H8.61417V3.69309V3.69297C8.61417 3.35317 8.33844 3.07755 7.99886 3.07755C7.65905 3.07755 7.38333 3.35317 7.38333 3.69297V8.00148C7.38333 8.34141 7.65905 8.61702 7.99886 8.61702H12.3177C12.6515 8.61702 12.9226 8.34255 12.9226 8.00388ZM14.7706 8C14.7706 11.74 11.7393 14.7718 8.00011 14.7718C4.26073 14.7718 1.22959 11.74 1.22959 8C1.22959 4.26005 4.26073 1.22822 8.00011 1.22822C11.7393 1.22822 14.7706 4.26005 14.7706 8ZM16 8C16 3.58168 12.4183 0 8.00011 0C3.58168 0 0 3.58168 0 8C0 12.4183 3.58168 16 8.00011 16C12.4183 16 16 12.4183 16 8Z" fill="white"/>
</svg>
