<svg width="15" height="16" viewBox="0 0 15 16" fill="none" xmlns="http://www.w3.org/2000/svg">
<path d="M0 14.87V3.44141C0 3.13323 0.11557 2.86356 0.333868 2.63242C0.552167 2.40128 0.82183 2.29856 1.13002 2.29856H2.26003V1.4382C2.26003 1.04013 2.40128 0.70626 2.67095 0.423756C2.95345 0.141252 3.27448 0 3.67255 0H4.23756C4.62279 0 4.95666 0.141252 5.23917 0.423756C5.52167 0.70626 5.65008 1.04013 5.65008 1.4382V2.29856H9.04013V1.4382C9.04013 1.04013 9.18138 0.70626 9.45104 0.423756C9.73355 0.141252 10.0546 0 10.4526 0H11.0177C11.4029 0 11.7368 0.141252 12.0193 0.423756C12.3018 0.70626 12.4302 1.04013 12.4302 1.4382V2.29856H13.5602C13.8684 2.29856 14.1252 2.41413 14.3563 2.63242C14.5746 2.86356 14.6902 3.12039 14.6902 3.44141V14.8571C14.6902 15.1653 14.5746 15.435 14.3563 15.6661C14.138 15.8973 13.8684 16 13.5602 16H1.13002C0.82183 16 0.565008 15.8844 0.333868 15.6661C0.11557 15.435 0 15.1782 0 14.87ZM1.13002 14.87H13.5602V5.72713H1.13002V14.87ZM3.39005 4.01926C3.39005 4.09631 3.41573 4.17336 3.46709 4.22472C3.51846 4.27608 3.58266 4.30177 3.67255 4.30177H4.23756C4.31461 4.30177 4.39165 4.27608 4.44302 4.22472C4.49438 4.17336 4.52006 4.10915 4.52006 4.01926V1.45104C4.52006 1.374 4.49438 1.29695 4.44302 1.24559C4.39165 1.19422 4.32745 1.16854 4.23756 1.16854H3.67255C3.59551 1.16854 3.51846 1.19422 3.46709 1.24559C3.41573 1.29695 3.39005 1.374 3.39005 1.45104V4.01926ZM10.1701 4.01926C10.1701 4.09631 10.1958 4.17336 10.2472 4.22472C10.2986 4.27608 10.3628 4.30177 10.4526 4.30177H11.0177C11.0947 4.30177 11.1717 4.27608 11.2231 4.22472C11.2745 4.17336 11.3002 4.10915 11.3002 4.01926V1.45104C11.3002 1.374 11.2745 1.29695 11.2231 1.24559C11.1717 1.19422 11.1075 1.16854 11.0177 1.16854H10.4526C10.3756 1.16854 10.2986 1.19422 10.2472 1.24559C10.1958 1.29695 10.1701 1.374 10.1701 1.45104V4.01926Z" fill="white"/>
</svg>
