<svg width="13" height="15" viewBox="0 0 13 15" fill="none" xmlns="http://www.w3.org/2000/svg">
<path fill-rule="evenodd" clip-rule="evenodd" d="M3.0791 0C2.25067 0 1.5791 0.671573 1.5791 1.5V11.9211C1.5791 12.7495 2.25067 13.4211 3.0791 13.4211H11.1317C11.9602 13.4211 12.6317 12.7495 12.6317 11.9211V1.5C12.6317 0.671573 11.9602 0 11.1317 0H3.0791ZM5.00817 10.5344C5.00817 10.8204 5.24007 11.0526 5.5261 11.0526C5.81237 11.0526 6.04427 10.8204 6.04427 10.5344V8.80744H7.77121C8.05736 8.80744 8.28926 8.57554 8.28926 8.28939C8.28926 8.00312 8.05736 7.77122 7.77121 7.77122H6.04427V6.04416C6.04427 5.75826 5.81237 5.52624 5.5261 5.52624C5.24007 5.52624 5.00817 5.75838 5.00817 6.04416V7.77122H3.28111C2.99508 7.77122 2.76306 8.00324 2.76306 8.28939C2.76306 8.57554 2.99508 8.80744 3.28111 8.80744H5.00817V10.5344Z" fill="#B3D1E9"/>
<path fill-rule="evenodd" clip-rule="evenodd" d="M1.5 1.5791C0.671573 1.5791 0 2.25067 0 3.0791V13.5002C0 14.3286 0.671572 15.0002 1.5 15.0002H9.55263C10.3811 15.0002 11.0526 14.3286 11.0526 13.5002V3.0791C11.0526 2.25067 10.3811 1.5791 9.55263 1.5791H1.5ZM5.00817 10.5344C5.00817 10.8204 5.24007 11.0526 5.5261 11.0526C5.81237 11.0526 6.04427 10.8204 6.04427 10.5344V8.80744H7.77121C8.05736 8.80744 8.28926 8.57554 8.28926 8.28939C8.28926 8.00312 8.05736 7.77122 7.77121 7.77122H6.04427V6.04416C6.04427 5.75826 5.81237 5.52624 5.5261 5.52624C5.24007 5.52624 5.00817 5.75838 5.00817 6.04416V7.77122H3.28111C2.99508 7.77122 2.76306 8.00324 2.76306 8.28939C2.76306 8.57554 2.99508 8.80744 3.28111 8.80744H5.00817V10.5344Z" fill="white"/>
</svg>
